<svg width="929" height="677" viewBox="0 0 929 677" fill="none" xmlns="http://www.w3.org/2000/svg">
    <rect x="10" y="10" width="80" height="80" />
    <g clip-path="url(#clip0_366_180)">
        <g filter="url(#filter0_d_366_180)">
            <path
                d="M829.114 180.621C835.244 177.136 842.756 177.136 848.886 180.621L914.622 217.999C920.875 221.554 924.737 228.193 924.737 235.385V309.615C924.737 316.807 920.875 323.446 914.622 327.001L848.886 364.379C842.756 367.864 835.244 367.864 829.114 364.379L763.378 327.001C757.125 323.446 753.263 316.807 753.263 309.615V235.385C753.263 228.193 757.125 221.554 763.378 217.999L829.114 180.621Z"
                fill="#222222" class="hover-path" />
        </g>
        <g filter="url(#filter1_d_366_180)">
            <path
                d="M283.114 484.621C289.244 481.136 296.756 481.136 302.886 484.621L368.622 521.999C374.875 525.554 378.737 532.193 378.737 539.385V613.615C378.737 620.807 374.875 627.446 368.622 631.001L302.886 668.379C296.756 671.864 289.244 671.864 283.114 668.379L217.378 631.001C211.125 627.446 207.263 620.807 207.263 613.615V539.385C207.263 532.193 211.125 525.554 217.378 521.999L283.114 484.621Z"
                fill="#222222" class="hover-path" />
        </g>
        <g filter="url(#filter2_d_366_180)">
            <path
                d="M465.114 487.621C471.244 484.136 478.756 484.136 484.886 487.621L550.622 524.999C556.875 528.554 560.737 535.193 560.737 542.385V616.615C560.737 623.807 556.875 630.446 550.622 634.001L484.886 671.379C478.756 674.864 471.244 674.864 465.114 671.379L399.378 634.001C393.125 630.446 389.263 623.807 389.263 616.615V542.385C389.263 535.193 393.125 528.554 399.378 524.999L465.114 487.621Z"
                fill="#222222" class="hover-path" />
        </g>
        <g filter="url(#filter3_d_366_180)">
            <path
                d="M378.114 333.621C384.244 330.136 391.756 330.136 397.886 333.621L463.622 370.999C469.875 374.554 473.737 381.193 473.737 388.385V462.615C473.737 469.807 469.875 476.446 463.622 480.001L397.886 517.379C391.756 520.864 384.244 520.864 378.114 517.379L312.378 480.001C306.125 476.446 302.263 469.807 302.263 462.615V388.385C302.263 381.193 306.125 374.554 312.378 370.999L378.114 333.621Z"
                fill="#222222" class="hover-path" />
        </g>
        <g clip-path="url(#clip1_366_180)">
            <path
                d="M797.373 317.526L789 228.168L889 228.348L880.146 317.526L839.377 327.834L797.373 317.526Z"
                fill="#E9CA32" />
            <path d="M839.377 319.204V236.678L880.558 236.797L873.215 310.633L839.377 319.204Z"
                fill="#FFDE25" />
            <path
                d="M834.968 246.477H824.081V301.404L815.613 299.995V292.601L805.532 291.193V307.741L834.968 314.431V246.477ZM843.135 246.477H873.274L871.258 257.004H854.64V274.28H871.258L869.242 309.15L843.135 314.431V303.516L860.774 298.235L861.793 283.799L843.135 286.158V246.477Z"
                fill="white" />
        </g>
        <g filter="url(#filter4_d_366_180)">
            <path
                d="M198.114 328.621C204.244 325.136 211.756 325.136 217.886 328.621L283.622 365.999C289.875 369.554 293.737 376.193 293.737 383.385V457.615C293.737 464.807 289.875 471.446 283.622 475.001L217.886 512.379C211.756 515.864 204.244 515.864 198.114 512.379L132.378 475.001C126.125 471.446 122.263 464.807 122.263 457.615V383.385C122.263 376.193 126.125 369.554 132.378 365.999L198.114 328.621Z"
                fill="#222222" class="hover-path" />
        </g>
        <g clip-path="url(#clip2_366_180)">
            <path fill-rule="evenodd" clip-rule="evenodd"
                d="M439.924 529.012C433.077 529.012 428.011 535.279 428.238 542.077C428.455 548.607 428.173 557.065 426.137 563.962C424.094 570.878 420.641 575.261 415 575.824V582.176C420.641 582.739 424.094 587.12 426.137 594.038C428.173 600.935 428.455 609.393 428.237 615.923C428.011 622.719 433.077 628.988 439.925 628.988H510.085C516.932 628.988 521.997 622.72 521.77 615.923C521.553 609.393 521.836 600.935 523.871 594.038C525.914 587.12 529.359 582.738 535 582.176V575.824C529.359 575.26 525.915 570.879 523.871 563.962C521.835 557.066 521.553 548.607 521.77 542.077C521.997 535.28 516.932 529.012 510.085 529.012H439.923H439.924ZM496.356 590.554C496.356 599.913 489.681 605.589 478.603 605.589H459.746C459.206 605.589 458.689 605.365 458.308 604.966C457.926 604.567 457.712 604.026 457.712 603.462V554.538C457.712 553.973 457.926 553.432 458.308 553.034C458.689 552.635 459.206 552.41 459.746 552.41H478.496C487.733 552.41 493.795 557.643 493.795 565.677C493.795 571.316 489.717 576.365 484.521 577.249V577.543C491.594 578.355 496.356 583.478 496.356 590.554ZM476.547 559.154H465.795V575.037H474.851C481.851 575.037 485.712 572.089 485.712 566.819C485.711 561.881 482.392 559.154 476.547 559.154ZM465.795 581.34V598.844H476.942C484.232 598.844 488.092 595.785 488.092 590.037C488.092 584.288 484.123 581.339 476.474 581.339H465.795V581.34Z"
                fill="#7952B3" />
        </g>
        <g filter="url(#filter5_d_366_180)">
            <path
                d="M469.114 180.621C475.244 177.136 482.756 177.136 488.886 180.621L554.622 217.999C560.875 221.554 564.737 228.193 564.737 235.385V309.615C564.737 316.807 560.875 323.446 554.622 327.001L488.886 364.379C482.756 367.864 475.244 367.864 469.114 364.379L403.378 327.001C397.125 323.446 393.263 316.807 393.263 309.615V235.385C393.263 228.193 397.125 221.554 403.378 217.999L469.114 180.621Z"
                fill="#222222" class="hover-path" />
        </g>
        <g filter="url(#filter6_d_366_180)">
            <path
                d="M558.114 333.621C564.244 330.136 571.756 330.136 577.886 333.621L643.622 370.999C649.875 374.554 653.737 381.193 653.737 388.385V462.615C653.737 469.807 649.875 476.446 643.622 480.001L577.886 517.379C571.756 520.864 564.244 520.864 558.114 517.379L492.378 480.001C486.125 476.446 482.263 469.807 482.263 462.615V388.385C482.263 381.193 486.125 374.554 492.378 370.999L558.114 333.621Z"
                fill="#222222" class="hover-path" />
        </g>
        <g filter="url(#filter7_d_366_180)">
            <path
                d="M649.114 180.621C655.244 177.136 662.756 177.136 668.886 180.621L734.622 217.999C740.875 221.554 744.737 228.193 744.737 235.385V309.615C744.737 316.807 740.875 323.446 734.622 327.001L668.886 364.379C662.756 367.864 655.244 367.864 649.114 364.379L583.378 327.001C577.125 323.446 573.263 316.807 573.263 309.615V235.385C573.263 228.193 577.125 221.554 583.378 217.999L649.114 180.621Z"
                fill="#222222" class="hover-path" />
        </g>
        <g filter="url(#filter8_d_366_180)">
            <path
                d="M740.114 25.621C746.244 22.1357 753.756 22.1357 759.886 25.621L825.622 62.999C831.875 66.5541 835.737 73.1926 835.737 80.385V154.615C835.737 161.807 831.875 168.446 825.622 172.001L759.886 209.379C753.756 212.864 746.244 212.864 740.114 209.379L674.378 172.001C668.125 168.446 664.263 161.807 664.263 154.615V80.385C664.263 73.1926 668.125 66.5541 674.378 62.999L740.114 25.621Z"
                fill="#222222" class="hover-path" />
        </g>
        <g filter="url(#filter9_d_366_180)">
            <path
                d="M649.114 487.621C655.244 484.136 662.756 484.136 668.886 487.621L734.622 524.999C740.875 528.554 744.737 535.193 744.737 542.385V616.615C744.737 623.807 740.875 630.446 734.622 634.001L668.886 671.379C662.756 674.864 655.244 674.864 649.114 671.379L583.378 634.001C577.125 630.446 573.263 623.807 573.263 616.615V542.385C573.263 535.193 577.125 528.554 583.378 524.999L649.114 487.621Z"
                fill="#222222" class="hover-path" />
        </g>
        <path
            d="M659.977 525.988L662.357 530.208C662.892 530.987 663.472 531.676 664.152 532.318C666.152 534.182 668.017 536.174 669.732 538.279C673.762 543.272 676.482 548.823 678.422 554.826C679.587 558.489 680.217 562.255 680.267 566.055C680.462 577.425 676.332 587.185 668.012 595.299C666.662 596.582 665.197 597.767 663.637 598.824C662.812 598.824 662.422 598.23 662.082 597.677C661.462 596.658 661.052 595.539 660.867 594.378C660.572 593 660.382 591.627 660.477 590.211V589.569C660.412 589.423 659.687 526.314 659.977 525.988Z"
            fill="#599636" />
        <path
            d="M659.978 525.853C659.883 525.669 659.783 525.805 659.683 525.9C659.733 526.82 659.388 527.641 658.858 528.425C658.273 529.204 657.498 529.803 656.718 530.445C652.403 533.971 649.003 538.237 646.283 543.004C642.658 549.419 640.793 556.295 640.268 563.54C640.028 566.15 641.143 575.364 642.018 578.021C644.398 585.082 648.668 590.996 654.208 596.126C655.568 597.363 657.023 598.509 658.523 599.614C658.963 599.614 659.008 599.246 659.108 598.972C659.303 598.387 659.448 597.792 659.548 597.188L660.523 590.316L659.978 525.853Z"
            fill="#6CAC48" />
        <path
            d="M662.357 601.609C662.452 600.556 662.987 599.688 663.572 598.815C662.987 598.588 662.552 598.13 662.212 597.625C661.917 597.144 661.677 596.639 661.487 596.11C660.807 594.189 660.662 592.165 660.467 590.201V589.012C660.228 589.196 660.173 590.753 660.173 590.985C660.033 593.066 659.738 595.129 659.298 597.172C659.153 597.998 659.058 598.824 658.518 599.556C658.518 599.645 658.518 599.74 658.568 599.877C659.443 602.307 659.683 604.781 659.828 607.306V608.226C659.828 609.326 659.778 609.095 660.747 609.463C661.137 609.6 661.572 609.647 661.962 609.92C662.257 609.92 662.302 609.694 662.302 609.505L662.157 607.99V603.771C662.112 603.034 662.257 602.303 662.357 601.609Z"
            fill="#C2BFBF" />
        <path
            d="M620.966 622.087V624.125C620.966 624.207 620.966 624.289 620.981 624.366C621.006 624.607 621.165 624.757 621.394 624.824C621.609 624.877 621.828 624.916 622.048 624.945C622.176 624.959 622.216 625.012 622.232 625.142C622.247 625.6 622.206 625.653 621.737 625.624C620.644 625.571 619.546 625.557 618.454 625.624H618.352C618.01 625.639 617.984 625.61 617.984 625.287C617.984 625.234 617.999 625.166 617.999 625.113C617.999 625.017 618.071 624.964 618.168 624.964C618.398 624.94 618.607 624.882 618.821 624.843C619.117 624.776 619.291 624.603 619.317 624.318C619.357 624.01 619.357 623.687 619.357 623.378L619.373 619.783C619.383 619.571 619.26 619.373 619.061 619.272C618.806 619.137 618.53 619.031 618.25 618.949C618.163 618.925 618.081 618.911 618.01 618.867C617.8 618.771 617.795 618.597 617.994 618.491C618.066 618.453 618.153 618.424 618.234 618.409C619.096 618.289 619.943 618.087 620.761 617.807C620.93 617.754 620.976 617.768 620.991 617.928C621.006 618.024 620.991 618.144 620.976 618.236C620.95 618.409 620.95 618.583 620.95 618.747C620.95 618.814 620.966 618.882 621.037 618.92C621.109 618.959 621.18 618.92 621.246 618.882C621.543 618.665 621.844 618.467 622.17 618.294C622.64 618.053 623.135 617.836 623.677 617.768C624.33 617.687 624.897 617.85 625.397 618.25C625.601 618.424 625.785 618.622 625.938 618.838C626.081 619.036 626.097 619.041 626.28 618.906C626.822 618.53 627.388 618.197 628.001 617.952C628.639 617.696 629.293 617.658 629.946 617.87C630.615 618.096 631.069 618.54 631.34 619.142C631.57 619.624 631.667 620.125 631.667 620.646V624.241C631.667 624.482 631.769 624.631 632.024 624.752C632.295 624.848 632.591 624.901 632.877 624.954C633.06 624.993 633.06 624.993 633.06 625.171C633.035 625.615 632.989 625.639 632.534 625.615C631.395 625.552 630.253 625.552 629.114 625.615C628.884 625.629 628.884 625.629 628.874 625.412V625.345C628.859 624.983 628.859 624.983 629.231 624.901L629.599 624.805C629.854 624.747 630.038 624.53 630.038 624.28L630.079 623.272L630.053 620.646C630.043 620.41 629.992 620.178 629.895 619.961C629.538 619.142 628.756 618.848 628.006 618.93C627.439 618.983 626.939 619.2 626.469 619.508C626.367 619.576 626.301 619.658 626.311 619.788C626.439 620.646 626.352 621.504 626.367 622.361V624.227C626.367 624.564 626.51 624.723 626.852 624.805L627.506 624.94C627.608 624.954 627.664 624.993 627.664 625.099V625.195C627.649 625.571 627.623 625.586 627.225 625.586C626.086 625.533 624.953 625.547 623.83 625.586C623.447 625.6 623.416 625.562 623.431 625.195C623.447 624.978 623.472 624.969 623.687 624.925L624.156 624.843C624.57 624.762 624.723 624.617 624.754 624.198L624.795 623.296L624.769 620.602C624.744 620.265 624.667 619.947 624.473 619.638C624.187 619.142 623.743 618.887 623.135 618.863C622.523 618.824 621.987 619.036 621.471 619.306C621.114 619.504 620.961 619.735 620.986 620.125V622.082L620.966 622.087ZM647.733 622.169V624.058C647.733 624.193 647.744 624.328 647.759 624.458C647.769 624.641 647.912 624.795 648.101 624.834C648.346 624.901 648.596 624.94 648.851 624.954C648.994 624.969 649.02 625.022 649.035 625.128V625.224C649.02 625.692 648.964 625.75 648.479 625.721C647.396 625.653 646.319 625.668 645.242 625.721L644.828 625.735C644.742 625.735 644.726 625.697 644.701 625.639C644.66 625.453 644.66 625.261 644.701 625.075C644.716 624.993 644.772 624.978 644.859 624.954C645.068 624.93 645.242 624.887 645.441 624.858C645.798 624.776 645.926 624.641 645.936 624.294L645.977 623.166V619.865C645.977 619.624 645.875 619.475 645.65 619.369C645.395 619.234 645.124 619.142 644.839 619.046C644.752 619.022 644.67 618.993 644.599 618.949C644.415 618.829 644.389 618.655 644.573 618.52C644.655 618.458 644.752 618.419 644.859 618.414C645.768 618.279 646.651 618.091 647.504 617.768C647.606 617.73 647.647 617.754 647.687 617.836C647.728 617.918 647.744 618.009 647.728 618.106L647.687 618.737C647.687 618.819 647.647 618.935 647.713 618.964C647.8 619.017 647.856 618.896 647.927 618.867C648.346 618.535 648.809 618.256 649.306 618.038C649.745 617.841 650.199 617.715 650.71 617.744C651.664 617.797 652.343 618.255 652.783 619.046C653.012 619.46 653.109 619.918 653.15 620.385L653.191 621.369L653.206 624.333C653.222 624.559 653.308 624.709 653.548 624.791C653.798 624.868 654.054 624.926 654.314 624.964C654.544 624.988 654.554 625.031 654.569 625.234V625.301C654.544 625.759 654.513 625.769 654.028 625.745C652.969 625.692 651.907 625.692 650.848 625.745C650.705 625.759 650.562 625.745 650.434 625.759C650.347 625.759 650.291 625.745 650.276 625.663C650.25 625.489 650.22 625.316 650.26 625.128C650.276 625.046 650.317 625.007 650.419 624.993L651.072 624.897C651.302 624.843 651.43 624.699 651.455 624.506L651.481 624.13L651.465 621.325C651.465 621.002 651.45 620.679 651.379 620.361C651.21 619.672 650.654 619.185 649.903 619.113C649.25 619.046 648.657 619.21 648.111 619.542C647.841 619.701 647.728 619.932 647.728 620.212V622.236C647.728 622.198 647.728 622.198 647.744 622.198L647.733 622.169Z"
            fill="#47474A" />
        <path
            d="M689.337 618.376C689.179 617.398 688.796 616.526 688.127 615.759C687.545 615.085 686.795 614.559 685.937 614.232C685.044 613.885 684.089 613.774 683.124 613.75C682.726 613.735 677.299 613.817 676.901 613.75C676.798 613.735 676.732 613.764 676.671 613.846C676.599 613.942 676.528 614.048 676.487 614.154C676.319 614.516 676.319 614.492 676.727 614.545C677.069 614.598 677.396 614.627 677.723 614.718C678.019 614.815 678.233 614.974 678.304 615.282C678.33 615.432 678.361 620.15 678.361 622.348L678.305 623.919C678.289 624.039 678.279 624.16 678.233 624.266C678.177 624.425 678.075 624.56 677.906 624.627C677.717 624.709 677.518 624.762 677.309 624.777C676.926 624.815 676.87 624.83 676.742 625.235L676.701 625.384C676.676 625.557 676.686 625.586 676.87 625.586L681.118 625.625L682.782 625.601L683.931 625.466C685.238 625.239 686.402 624.728 687.397 623.909C687.964 623.437 688.429 622.863 688.76 622.218C689.159 621.466 689.327 620.646 689.373 619.817C689.45 619.34 689.424 618.858 689.337 618.376ZM687.28 620.28C687.224 621.138 687.04 621.972 686.57 622.719C685.973 623.697 685.12 624.381 683.941 624.622C683.43 624.719 682.92 624.772 682.384 624.704C682.001 624.666 681.633 624.622 681.276 624.502C680.638 624.285 680.408 623.914 680.398 623.326L680.382 615.239C680.382 614.757 680.612 614.651 680.98 614.636C681.536 614.598 682.103 614.612 682.654 614.66C683.247 614.714 683.823 614.848 684.375 615.051C684.783 615.21 685.161 615.432 685.498 615.706C686.264 616.323 686.774 617.099 687.055 618.01C687.285 618.747 687.326 619.499 687.285 620.251L687.28 620.28ZM701.146 621.596C701.146 621.514 701.146 621.446 701.131 621.369C701.003 620.632 700.59 620.068 699.951 619.639C699.538 619.36 699.073 619.172 698.588 619.037C698.502 619.013 698.43 618.984 698.348 618.969C698.364 618.902 698.405 618.887 698.45 618.873C698.736 618.738 699.007 618.593 699.247 618.391C699.686 618.044 699.977 617.615 700.125 617.09C700.212 616.81 700.212 616.526 700.181 616.232C700.135 615.533 699.752 614.892 699.145 614.487C698.491 614.029 697.726 613.841 696.929 613.832C695.392 613.807 693.845 613.832 692.314 613.832C691.875 613.832 691.436 613.856 690.976 613.793C690.889 613.779 690.767 613.754 690.706 613.846C690.603 614.02 690.476 614.193 690.435 614.395C690.42 614.492 690.45 614.545 690.563 614.554L691.543 614.689C691.926 614.742 692.196 614.945 692.227 615.268C692.252 615.489 692.268 615.716 692.268 615.938L692.242 618.444L692.227 623.403C692.227 623.697 692.186 623.981 692.125 624.275C692.094 624.468 691.951 624.622 691.757 624.675C691.471 624.757 691.201 624.835 690.905 624.835C690.741 624.82 690.588 624.916 690.537 625.061C690.481 625.182 690.435 625.316 690.409 625.437C690.384 625.596 690.425 625.654 690.593 625.635C690.721 625.62 695.408 625.731 696.291 625.649C696.817 625.596 697.332 625.529 697.853 625.379C698.747 625.109 699.574 624.724 700.227 624.063C700.768 623.528 701.08 622.883 701.105 622.131C701.146 621.957 701.146 621.784 701.146 621.596ZM694.254 616.097L694.295 615.022C694.295 614.82 694.381 614.728 694.591 614.685C694.933 614.617 695.275 614.646 695.612 614.661C695.954 614.685 696.281 614.728 696.623 614.82C697.246 614.993 697.731 615.33 698.017 615.894C698.144 616.15 698.216 616.429 698.216 616.714C698.231 617.09 698.2 617.451 698.047 617.812C697.807 618.309 697.424 618.632 696.868 618.723C696.311 618.82 694.739 618.776 694.494 618.776C694.279 618.776 694.264 618.752 694.264 618.55V617.287C694.228 616.897 694.228 616.502 694.249 616.106L694.254 616.097ZM698.869 623.312C698.629 623.914 698.185 624.333 697.562 624.56C697.22 624.68 696.878 624.757 696.521 624.733C696.082 624.719 695.642 624.733 695.198 624.651C694.601 624.531 694.33 623.996 694.29 623.606C694.218 622.921 694.264 622.222 694.249 621.716V619.948C694.249 619.731 694.274 619.668 694.519 619.668L695.857 619.682L696.766 619.779C697.404 619.914 697.986 620.14 698.44 620.608C698.808 620.984 699.007 621.437 699.053 621.933C699.094 622.401 699.068 622.859 698.884 623.302L698.869 623.312Z"
            fill="#C2BFBF" />
        <path
            d="M662.774 619.273L663.141 619.326C663.54 619.34 664.009 619.205 664.152 618.68C664.229 618.43 664.229 618.164 664.152 617.914C664.066 617.914 664.025 617.981 663.984 618.01C663.769 618.169 663.529 618.266 663.274 618.29C662.764 618.343 662.253 618.314 661.753 618.14L661.058 617.914C660.573 617.764 660.063 617.702 659.552 617.726C658.827 617.779 658.148 618.005 657.505 618.328C656.821 618.675 656.341 619.201 656.111 619.909C655.984 620.323 655.968 620.752 656.024 621.181C656.167 622.16 656.709 622.844 657.674 623.206C657.73 623.22 657.776 623.244 657.832 623.259C657.959 623.326 657.975 623.393 657.857 623.485L657.5 623.712L656.647 624.208C656.433 624.328 656.407 624.425 656.479 624.637C656.566 624.888 656.719 625.109 656.933 625.283C657.127 625.442 657.347 625.567 657.587 625.659C657.745 625.726 657.745 625.755 657.602 625.876L656.79 626.425C656.52 626.623 656.249 626.815 656.024 627.071C655.866 627.229 655.753 627.422 655.693 627.633C655.633 627.843 655.63 628.064 655.682 628.276C655.79 628.743 656.045 629.162 656.423 629.48C656.791 629.804 657.241 630.035 657.73 630.15C658.526 630.367 659.348 630.377 660.16 630.232C661.324 630.03 662.345 629.543 663.141 628.719C663.698 628.17 664.02 627.524 664.05 626.757C664.117 625.837 663.463 625.013 662.513 624.801L661.748 624.666L659.404 624.468C659.149 624.454 658.894 624.415 658.679 624.295C658.409 624.136 658.337 623.827 658.511 623.625C658.638 623.475 658.797 623.384 658.996 623.369L659.45 623.331C660.348 623.245 661.191 622.882 661.85 622.299C662.201 621.991 662.453 621.595 662.575 621.157C662.743 620.579 662.743 619.981 662.6 619.393C662.559 619.244 662.575 619.234 662.769 619.258L662.774 619.273ZM659.292 625.953C659.379 625.967 659.46 625.953 659.547 625.953C660.145 625.977 660.757 626.02 661.339 626.169C661.528 626.223 661.717 626.29 661.896 626.372C662.462 626.666 662.677 627.177 662.605 627.726C662.519 628.329 662.166 628.758 661.61 629.042C661.242 629.24 660.829 629.321 660.4 629.365C660.242 629.379 660.104 629.365 659.945 629.365C659.45 629.379 658.965 629.326 658.495 629.138C658.169 629.018 657.898 628.844 657.658 628.603C657.163 628.136 656.928 627.278 657.674 626.579C658.128 626.179 658.638 625.9 659.292 625.953ZM660.915 621.769C660.619 622.478 659.961 622.695 659.312 622.598C658.715 622.516 658.276 622.208 657.99 621.697C657.622 621.013 657.52 620.304 657.735 619.567C657.893 619.017 658.245 618.603 658.873 618.506C659.67 618.372 660.43 618.641 660.834 619.393C661.043 619.755 661.13 620.198 661.13 620.83C661.115 621.085 661.058 621.432 660.915 621.769ZM643.016 620.854C642.888 620.131 642.602 619.47 642.076 618.921C641.295 618.102 640.3 617.745 639.177 617.74C638.196 617.726 637.272 617.996 636.45 618.478C635.639 618.935 635.046 619.668 634.786 620.531C634.546 621.307 634.556 622.102 634.745 622.892C635.24 625.013 636.976 625.924 639.049 625.789C639.662 625.75 640.244 625.562 640.795 625.307C641.617 624.945 642.214 624.367 642.628 623.606C642.955 622.974 643.098 622.304 643.082 621.538L643.016 620.854ZM640.999 623.832C640.79 624.449 640.218 624.892 639.534 624.96C638.911 625.042 638.324 624.892 637.803 624.545C637.425 624.28 637.119 623.938 636.91 623.538C636.328 622.41 636.226 621.234 636.527 620.025C636.624 619.649 636.828 619.311 637.124 619.046C637.65 618.588 638.263 618.482 638.942 618.617C639.595 618.752 640.09 619.085 640.499 619.596C640.907 620.107 641.096 620.695 641.209 621.311C641.265 621.62 641.265 621.943 641.28 622.14C641.28 622.786 641.224 623.316 641.009 623.832H640.999ZM674.057 620.964C673.955 620.189 673.643 619.475 673.061 618.887C672.295 618.097 671.3 617.759 670.192 617.745C669.237 617.731 668.359 617.986 667.547 618.429C666.639 618.94 666.011 619.663 665.771 620.642C665.485 621.711 665.602 622.839 666.113 623.832C666.582 624.772 667.379 625.374 668.431 625.644C669.595 625.938 670.703 625.803 671.785 625.307C672.724 624.878 673.388 624.208 673.776 623.297C674.006 622.762 674.087 622.184 674.103 621.514C674.113 621.393 674.082 621.177 674.057 620.964ZM672.096 623.659C671.867 624.381 671.387 624.854 670.575 624.96C669.978 625.042 669.411 624.907 668.9 624.584C668.461 624.304 668.15 623.928 667.92 623.485C667.665 623.018 667.522 622.521 667.466 622.01C667.379 621.379 667.379 620.762 667.537 620.131C667.568 620.005 667.609 619.885 667.665 619.769C668.063 618.829 668.941 618.4 669.983 618.617C670.677 618.767 671.203 619.128 671.601 619.678C671.984 620.213 672.168 620.805 672.255 621.442C672.295 621.697 672.311 621.967 672.295 622.193C672.295 622.719 672.255 623.201 672.086 623.668L672.096 623.659Z"
            fill="#47474A" />
        <g filter="url(#filter10_d_366_180)">
            <path
                d="M739.114 333.621C745.244 330.136 752.756 330.136 758.886 333.621L824.622 370.999C830.875 374.554 834.737 381.193 834.737 388.385V462.615C834.737 469.807 830.875 476.446 824.622 480.001L758.886 517.379C752.756 520.864 745.244 520.864 739.114 517.379L673.378 480.001C667.125 476.446 663.263 469.807 663.263 462.615V388.385C663.263 381.193 667.125 374.554 673.378 370.999L739.114 333.621Z"
                fill="#222222" class="hover-path" />
        </g>
        <g clip-path="url(#clip3_366_180)">
            <path
                d="M526.373 471.524L518 382.168L618 382.348L609.146 471.524L568.377 481.832L526.373 471.524Z"
                fill="#1B73BA" />
            <path d="M568.377 473.202V390.678L609.558 390.797L602.215 464.632L568.377 473.202Z"
                fill="#1C88C7" />
            <path
                d="M599.331 401.227H535.982L537.698 412.013H567.76L538.179 423.101L539.894 433.529H583.477L581.898 448.091L567.142 450.609L553.759 447.613L552.729 439.342H540.444L542.09 456.542L568.446 462.955L593.704 455.943L596.93 422.321H570.23L599.331 411.774L599.331 401.227Z"
                fill="white" />
        </g>
        <g clip-path="url(#clip4_366_180)">
            <path
                d="M437.373 317.526L429 228.168L529 228.348L520.146 317.526L479.377 327.834L437.373 317.526Z"
                fill="#E34F26" />
            <path d="M479.377 319.204V236.678L520.558 236.797L513.215 310.633L479.377 319.204Z"
                fill="#EF652A" />
            <path
                d="M509.234 257.295L510.4 246.387H447.051L450.551 279.829H494.271L492.556 294.092L478.555 297.388L464.348 293.792L463.593 285.282H451.031L452.748 302.662L478.554 308.955L504.566 302.662L508.066 268.741H462.151L460.847 257.295H509.234Z"
                fill="white" />
        </g>
        <g clip-path="url(#clip5_366_180)">
            <path
                d="M693.798 302.413H693.266V302.158H694.7V302.413H694.17V303.685H693.798V302.413ZM696.658 302.48H696.649L696.121 303.686H695.88L695.356 302.48H695.35V303.686H694.999V302.159H695.515L696.001 303.24L696.485 302.159H697V303.686H696.657L696.658 302.48Z"
                fill="#E76F00" />
            <path
                d="M646.127 271.185C646.127 271.185 642.422 273.029 648.764 273.653C656.447 274.403 660.373 274.296 668.84 272.924C668.84 272.924 671.066 274.119 674.175 275.154C655.195 282.116 631.219 274.75 646.127 271.185ZM643.808 262.1C643.808 262.1 639.652 264.732 645.999 265.294C654.206 266.019 660.687 266.078 671.902 264.23C671.902 264.23 673.454 265.576 675.893 266.312C652.945 272.055 627.385 266.765 643.808 262.1Z"
                fill="#5382A1" />
            <path
                d="M663.36 246.687C668.036 251.295 662.131 255.442 662.131 255.442C662.131 255.442 674.005 250.195 668.552 243.625C663.459 237.498 659.553 234.454 680.698 223.957C680.698 223.957 647.507 231.052 663.36 246.687Z"
                fill="#E76F00" />
            <path
                d="M688.462 277.904C688.462 277.904 691.204 279.838 685.442 281.333C674.487 284.174 639.845 285.032 630.221 281.447C626.762 280.158 633.249 278.371 635.29 277.996C637.418 277.601 638.634 277.674 638.634 277.674C634.787 275.355 613.768 282.229 627.958 284.198C666.655 289.569 698.5 281.779 688.462 277.904ZM647.909 252.685C647.909 252.685 630.288 256.267 641.669 257.568C646.474 258.118 656.054 257.994 664.977 257.354C672.269 256.827 679.592 255.708 679.592 255.708C679.592 255.708 677.02 256.651 675.16 257.738C657.266 261.766 622.698 259.892 632.65 255.772C641.066 252.29 647.909 252.685 647.909 252.685ZM679.519 267.808C697.709 259.717 689.299 251.942 683.428 252.99C681.99 253.246 681.348 253.468 681.348 253.468C681.348 253.468 681.882 252.752 682.902 252.442C694.516 248.948 703.447 262.749 679.153 268.216C679.153 268.216 679.435 268.001 679.519 267.808Z"
                fill="#5382A1" />
            <path
                d="M668.552 207.006C668.552 207.006 678.626 215.631 658.998 228.895C643.257 239.534 655.408 245.6 658.991 252.531C649.803 245.436 643.061 239.19 647.584 233.377C654.223 224.844 672.617 220.707 668.552 207.006Z"
                fill="#E76F00" />
            <path
                d="M649.696 289.731C667.156 290.687 693.969 289.2 694.603 282.129C694.603 282.129 693.383 284.809 680.173 286.938C665.271 289.339 646.89 289.059 635.989 287.52C635.989 287.52 638.221 289.101 649.696 289.731Z"
                fill="#5382A1" />
            <path
                d="M646.835 316.751C645.188 317.974 643.448 318.66 641.887 318.66C639.659 318.66 638.455 317.517 638.455 315.682C638.455 313.698 639.745 312.247 644.92 312.247H646.835L646.835 316.751ZM651.38 321.14V307.554C651.38 304.083 649.067 301.793 643.491 301.793C640.236 301.793 637.384 302.481 635.066 303.359L635.735 305.763C637.56 305.19 639.922 304.656 642.241 304.656C645.453 304.656 646.835 305.763 646.835 308.052V309.769H645.232C637.427 309.769 633.907 312.362 633.907 316.254C633.907 319.613 636.227 321.523 640.595 321.523C643.403 321.523 645.499 320.53 647.458 319.078L647.814 321.14L651.38 321.14ZM666.548 321.14H660.879L654.057 302.137H659.008L663.241 313.812L664.182 317.324C666.323 312.247 667.838 307.096 668.596 302.137H673.411C672.121 308.394 669.799 315.263 666.548 321.14ZM688.293 316.751C686.643 317.974 684.901 318.66 683.339 318.66C681.115 318.66 679.908 317.517 679.908 315.682C679.908 313.698 681.2 312.247 686.375 312.247H688.293V316.751ZM692.838 321.14V307.554C692.838 304.083 690.519 301.793 684.949 301.793C681.692 301.793 678.839 302.481 676.523 303.359L677.191 305.763C679.016 305.19 681.383 304.656 683.699 304.656C686.909 304.656 688.293 305.763 688.293 308.052V309.769H686.687C678.881 309.769 675.361 312.362 675.361 316.254C675.361 319.613 677.68 321.523 682.047 321.523C684.857 321.523 686.952 320.53 688.915 319.078L689.272 321.14L692.838 321.14ZM628.923 324.367C627.628 325.986 625.535 327.267 623.244 327.992L621 325.732C622.744 324.966 624.239 323.729 624.934 322.577C625.535 321.552 625.784 320.232 625.784 317.074V295.379H630.613V316.776C630.612 320.998 630.218 322.704 628.923 324.367Z"
                fill="#E76F00" />
        </g>
        <path fill-rule="evenodd" clip-rule="evenodd"
            d="M686.851 132.073H691.045V113.508L697.595 129.694C698.337 131.64 699.403 132.36 701.466 132.36C703.53 132.36 704.532 131.639 705.299 129.694L711.816 113.508V132.073H716.043V113.508C716.043 111.707 715.397 110.84 714.042 110.371C710.848 109.29 708.719 110.227 707.751 112.641L701.331 128.647L695.136 112.641C694.201 110.227 692.038 109.29 688.813 110.371C687.489 110.84 686.844 111.706 686.844 113.508L686.844 132.073H686.851ZM719.534 116.969H723.761V127.171C723.729 127.747 723.922 129.045 726.22 129.08C727.413 129.116 735.318 129.08 735.382 129.08V116.896H739.608V133.587C739.608 137.696 735.053 138.596 732.929 138.633H719.638V135.498H732.963C735.674 135.174 735.351 133.66 735.351 133.155V131.929H726.413C722.251 131.892 719.573 129.838 719.542 127.495V116.967L719.534 116.969ZM810.195 105.144C807.615 105.072 805.613 105.361 803.936 106.154C803.453 106.372 802.677 106.372 802.614 107.056C802.872 107.343 802.903 107.812 803.129 108.21C803.516 108.931 804.194 109.903 804.807 110.407C805.485 110.985 806.163 111.561 806.871 112.066C808.13 112.931 809.549 113.436 810.775 114.301C811.485 114.806 812.194 115.455 812.904 115.996C813.266 116.284 813.485 116.754 813.937 116.933V116.824C813.712 116.501 813.646 116.032 813.422 115.67C813.098 115.311 812.776 114.985 812.453 114.626C811.518 113.22 810.355 111.993 809.097 110.985C808.065 110.192 805.807 109.111 805.388 107.777L805.324 107.705C806.033 107.632 806.871 107.344 807.55 107.127C808.647 106.804 809.647 106.875 810.775 106.551C811.292 106.406 811.808 106.226 812.325 106.046V105.723C811.744 105.074 811.324 104.209 810.712 103.596C809.067 102.01 807.259 100.46 805.388 99.1622C804.388 98.4415 803.097 97.9721 802.032 97.3605C801.644 97.144 801 97.0357 800.774 96.6754C800.192 95.8836 799.87 94.8373 799.451 93.8992C798.516 91.9165 797.612 89.7181 796.806 87.6271C796.225 86.2212 795.869 84.8154 795.161 83.5178C791.837 77.3895 788.223 73.6769 782.674 70.0355C781.481 69.2784 780.061 68.9528 778.552 68.5569L776.132 68.4115C775.615 68.1594 775.1 67.4742 774.648 67.1494C772.809 65.8519 768.066 63.0402 766.71 66.7535C765.839 69.0966 768.001 71.4033 768.735 72.5934C769.284 73.4224 769.993 74.3596 770.381 75.2969C770.598 75.9093 770.671 76.5589 770.897 77.2077C771.413 78.7937 771.897 80.5607 772.575 82.0392C772.936 82.7963 773.316 83.5905 773.768 84.2749C774.026 84.6708 774.478 84.8517 774.574 85.5005C774.122 86.222 774.091 87.3023 773.833 88.2047C772.671 92.2785 773.123 97.3249 774.768 100.316C775.285 101.217 776.503 103.2 778.156 102.443C779.608 101.794 779.284 99.7391 779.704 97.9366C779.801 97.5043 779.736 97.2159 779.929 96.9266V96.9993L781.253 99.9912C782.253 101.757 783.996 103.596 785.447 104.823C786.221 105.472 786.834 106.59 787.801 106.986V106.877H787.738C787.544 106.553 787.253 106.408 786.995 106.156C786.414 105.507 785.769 104.714 785.317 103.993C783.963 101.975 782.77 99.7391 781.705 97.4324C781.188 96.315 780.736 95.0893 780.318 93.9719C780.123 93.5389 780.123 92.8893 779.801 92.6744C779.316 93.4662 778.608 94.1529 778.251 95.1257C777.638 96.6754 777.574 98.5862 777.349 100.569C777.218 100.605 777.276 100.569 777.218 100.642C776.187 100.354 775.832 99.163 775.445 98.1547C774.477 95.5951 774.315 91.4859 775.154 88.5295C775.38 87.7725 776.349 85.3931 775.962 84.6724C775.766 83.9872 775.123 83.5913 774.767 83.05C774.348 82.3649 773.897 81.5003 773.606 80.7433C772.833 78.7234 772.446 76.4894 771.606 74.4703C771.218 73.5331 770.541 72.5595 769.992 71.695C769.379 70.7214 768.703 70.0363 768.218 68.8833C768.057 68.4874 767.832 67.8378 768.09 67.4048C768.153 67.1163 768.284 67.0089 768.54 66.9361C768.96 66.5402 770.154 67.0444 770.574 67.2593C771.767 67.8007 772.767 68.3048 773.767 69.0611C774.219 69.4214 774.703 70.1066 775.284 70.2875H775.962C776.995 70.5396 778.156 70.3603 779.122 70.6834C780.833 71.2975 782.381 72.1975 783.769 73.1719C787.995 76.1638 791.481 80.4177 793.835 85.5013C794.222 86.3303 794.383 87.0874 794.739 87.9527C795.417 89.7197 796.256 91.5214 796.932 93.2529C797.61 94.9471 798.256 96.6786 799.223 98.0844C799.708 98.8415 801.643 99.2374 802.513 99.6341C803.159 99.9573 804.158 100.248 804.74 100.644C805.837 101.401 806.934 102.266 807.966 103.095C808.481 103.527 810.095 104.428 810.191 105.148L810.195 105.144ZM777.293 73.8183C776.847 73.8139 776.403 73.8745 775.971 73.9985V74.0712H776.035C776.293 74.6481 776.745 75.0448 777.067 75.5498L777.81 77.2804L777.874 77.2077C778.326 76.8473 778.552 76.2704 778.552 75.4059C778.358 75.1539 778.326 74.901 778.165 74.6489C777.971 74.2885 777.552 74.1076 777.293 73.8199V73.8183Z"
            fill="#00678C" />
        <path fill-rule="evenodd" clip-rule="evenodd"
            d="M742.829 132.073H754.96C756.379 132.073 757.735 131.75 758.831 131.172C760.67 130.235 761.542 128.975 761.542 127.316V123.855C761.542 122.522 760.542 121.259 758.542 120.395C757.51 119.963 756.219 119.71 754.961 119.71H749.863C748.152 119.71 747.346 119.132 747.12 117.872C747.088 117.728 747.088 117.583 747.088 117.439V115.312C747.088 115.203 747.088 115.06 747.12 114.916C747.345 113.943 747.797 113.69 749.289 113.51H761.71V110.373H749.902C748.192 110.373 747.288 110.482 746.481 110.771C743.997 111.635 742.9 113.005 742.9 115.42V118.161C742.9 120.286 745.029 122.09 748.643 122.522C749.03 122.559 749.449 122.559 749.868 122.559H754.225C754.386 122.559 754.546 122.559 754.675 122.595C755.998 122.739 756.579 122.991 756.966 123.531C757.224 123.819 757.289 124.072 757.289 124.397V127.136C757.289 127.459 757.095 127.894 756.708 128.253C756.322 128.613 755.707 128.866 754.901 128.902C754.739 128.902 754.644 128.938 754.481 128.938H742.829V132.073ZM787.803 126.631C787.803 129.838 789.973 131.64 794.29 132.002C794.709 132.038 795.096 132.073 795.515 132.073H806.485V128.938H795.419C792.966 128.938 792.031 128.253 792.031 126.595V110.373H787.795V126.632L787.803 126.631ZM764.219 126.774V115.6C764.219 112.752 766.025 111.02 769.543 110.481C769.93 110.444 770.317 110.408 770.671 110.408H778.672C779.091 110.408 779.447 110.444 779.866 110.481C783.383 111.02 785.157 112.751 785.157 115.6V126.774C785.157 129.08 784.415 130.307 782.672 131.137L786.801 135.317H781.93L778.575 131.929L775.186 132.146H770.67C769.842 132.141 769.018 132.02 768.218 131.786C765.542 130.956 764.219 129.37 764.219 126.774ZM768.767 126.523C768.767 126.667 768.839 126.81 768.865 126.992C769.09 128.289 770.187 129.01 771.864 129.01H775.672L772.188 125.477H777.059L780.124 128.578C780.706 128.217 781.06 127.712 781.189 127.063C781.221 126.919 781.221 126.74 781.221 126.594V115.887C781.221 115.744 781.221 115.601 781.189 115.455C780.963 114.23 779.867 113.546 778.221 113.546H771.865C769.994 113.546 768.768 114.447 768.768 115.887L768.767 126.523Z"
            fill="#CE8B2C" />
        <mask id="mask0_366_180" style="mask-type:luminance" maskUnits="userSpaceOnUse" x="688"
            y="386" width="123" height="80">
            <path
                d="M688.533 425.91C688.533 447.682 715.746 465.332 749.315 465.332C782.884 465.332 810.098 447.682 810.098 425.91C810.098 404.138 782.884 386.488 749.315 386.488C715.746 386.488 688.533 404.138 688.533 425.91Z"
                fill="white" />
        </mask>
        <g mask="url(#mask0_366_180)">
            <path
                d="M688.533 425.91C688.533 447.682 715.746 465.332 749.315 465.332C782.884 465.332 810.098 447.682 810.098 425.91C810.098 404.138 782.884 386.488 749.315 386.488C715.746 386.488 688.533 404.138 688.533 425.91Z"
                fill="url(#paint0_radial_366_180)" />
        </g>
        <mask id="mask1_366_180" style="mask-type:luminance" maskUnits="userSpaceOnUse" x="686"
            y="382" width="127" height="88">
            <path d="M686 381.999H812.63V469.82H686V381.999Z" fill="white" />
        </mask>
        <g mask="url(#mask1_366_180)">
            <path
                d="M749.315 462.404C781.573 462.404 807.723 446.065 807.723 425.91C807.723 405.754 781.573 389.415 749.315 389.415C717.057 389.415 690.907 405.754 690.907 425.91C690.907 446.065 717.057 462.404 749.315 462.404Z"
                fill="#777BB3" />
        </g>
        <mask id="mask2_366_180" style="mask-type:luminance" maskUnits="userSpaceOnUse" x="686"
            y="382" width="127" height="88">
            <path d="M686 381.999H812.63V469.82H686V381.999Z" fill="white" />
        </mask>
        <g mask="url(#mask2_366_180)">
            <path
                d="M721.556 430.434C724.209 430.434 726.189 429.831 727.441 428.643C728.681 427.466 729.537 425.428 729.986 422.584C730.404 419.926 730.245 418.07 729.512 417.069C728.763 416.046 727.144 415.527 724.699 415.527H720.461L718.11 430.435H721.556L721.556 430.434ZM707.692 448.798C707.495 448.798 707.308 448.69 707.183 448.502C707.121 448.41 707.077 448.302 707.053 448.185C707.029 448.069 707.026 447.948 707.045 447.83L713.273 408.324C713.302 408.139 713.382 407.972 713.5 407.852C713.619 407.732 713.767 407.666 713.92 407.666H727.342C731.561 407.666 734.7 409.076 736.674 411.864C738.658 414.664 739.271 418.579 738.495 423.498C738.179 425.502 737.636 427.363 736.881 429.03C736.125 430.698 735.126 432.242 733.911 433.619C732.457 435.297 730.811 436.514 729.023 437.23C727.263 437.937 725.004 438.296 722.307 438.296H716.872L715.32 448.141C715.291 448.326 715.21 448.493 715.092 448.613C714.974 448.733 714.826 448.799 714.673 448.799H707.692V448.798Z"
                fill="black" />
            <path
                d="M721.004 416.339H724.7C727.65 416.339 728.675 417.138 729.023 417.613C729.601 418.403 729.71 420.068 729.339 422.429C728.921 425.072 728.148 426.946 727.04 427.998C725.905 429.075 724.06 429.621 721.557 429.621H718.911L721.004 416.339ZM727.343 406.852H713.92C713.614 406.852 713.317 406.984 713.081 407.224C712.845 407.464 712.684 407.798 712.625 408.168L706.398 447.675C706.361 447.91 706.366 448.153 706.414 448.385C706.462 448.618 706.551 448.834 706.675 449.019C706.799 449.205 706.954 449.354 707.13 449.456C707.306 449.558 707.498 449.611 707.692 449.611H714.672C714.979 449.611 715.275 449.48 715.512 449.24C715.748 449 715.909 448.666 715.967 448.295L717.416 439.108H722.307C725.073 439.108 727.402 438.736 729.228 438.003C731.105 437.251 732.833 435.975 734.362 434.213C735.627 432.778 736.671 431.168 737.458 429.427C738.245 427.685 738.814 425.742 739.143 423.653C739.96 418.474 739.297 414.328 737.171 411.329C735.067 408.359 731.76 406.853 727.343 406.853M717.311 431.247H721.557C724.371 431.247 726.467 430.594 727.844 429.287C729.221 427.979 730.151 425.797 730.634 422.739C731.095 419.803 730.885 417.731 730.003 416.524C729.12 415.316 727.351 414.713 724.7 414.713H719.917L717.311 431.247M727.343 408.479C731.381 408.479 734.327 409.785 736.178 412.398C738.03 415.011 738.587 418.659 737.848 423.342C737.544 425.271 737.03 427.035 736.306 428.633C735.582 430.231 734.635 431.694 733.465 433.02C732.072 434.628 730.523 435.774 728.819 436.457C727.116 437.141 724.946 437.482 722.308 437.482H716.329L714.673 447.985H707.693L713.92 408.479H727.343"
                fill="white" />
            <path
                d="M754.5 438.295C754.303 438.295 754.116 438.186 753.991 437.999C753.866 437.811 753.815 437.565 753.853 437.326L756.607 419.846C756.869 418.184 756.805 416.991 756.425 416.487C756.193 416.178 755.496 415.661 753.434 415.661H748.443L744.979 437.636C744.95 437.822 744.87 437.989 744.752 438.109C744.633 438.229 744.485 438.294 744.332 438.294H737.407C737.31 438.294 737.214 438.268 737.126 438.217C737.038 438.166 736.96 438.091 736.898 437.999C736.836 437.906 736.792 437.798 736.768 437.681C736.744 437.565 736.741 437.444 736.759 437.326L742.987 397.82C743.016 397.635 743.097 397.468 743.215 397.348C743.333 397.228 743.482 397.162 743.635 397.162H750.56C750.657 397.162 750.753 397.189 750.841 397.24C750.929 397.291 751.007 397.366 751.069 397.458C751.13 397.551 751.175 397.659 751.199 397.775C751.223 397.891 751.226 398.013 751.207 398.131L749.704 407.666H755.073C759.164 407.666 761.937 408.555 763.553 410.384C765.202 412.25 765.713 415.233 765.08 419.253L762.182 437.637C762.153 437.822 762.073 437.989 761.955 438.109C761.836 438.229 761.688 438.295 761.535 438.295H754.5L754.5 438.295Z"
                fill="black" />
            <path
                d="M750.559 396.349H743.634C743.328 396.349 743.032 396.48 742.795 396.72C742.559 396.96 742.398 397.294 742.339 397.665L736.112 437.171C736.075 437.406 736.08 437.649 736.128 437.882C736.176 438.114 736.265 438.331 736.389 438.516C736.513 438.701 736.668 438.85 736.844 438.952C737.02 439.054 737.212 439.107 737.407 439.107H744.332C744.638 439.107 744.935 438.976 745.171 438.736C745.407 438.496 745.568 438.162 745.627 437.791L748.986 416.474H753.434C755.492 416.474 755.924 417.017 755.942 417.04C756.067 417.205 756.231 417.972 755.96 419.691L753.205 437.171C753.168 437.406 753.174 437.649 753.221 437.882C753.269 438.114 753.358 438.331 753.482 438.516C753.606 438.701 753.761 438.85 753.937 438.952C754.113 439.054 754.305 439.107 754.5 439.107H761.535C761.841 439.107 762.138 438.976 762.374 438.736C762.61 438.496 762.771 438.162 762.83 437.791L765.727 419.407C766.407 415.092 765.826 411.855 763.999 409.785C762.256 407.812 759.337 406.852 755.074 406.852H750.504L751.855 398.285C751.892 398.05 751.887 397.807 751.839 397.575C751.791 397.342 751.702 397.126 751.578 396.941C751.454 396.755 751.299 396.606 751.123 396.504C750.947 396.402 750.755 396.349 750.56 396.349M750.56 397.975L748.905 408.478H755.074C758.956 408.478 761.633 409.314 763.107 410.982C764.581 412.651 765.022 415.357 764.433 419.097L761.536 437.481H754.501L757.255 420.001C757.569 418.013 757.454 416.657 756.909 415.933C756.365 415.21 755.206 414.848 753.435 414.848H747.899L744.332 437.481H737.407L743.635 397.975H750.56"
                fill="white" />
            <path
                d="M776.037 430.434C778.689 430.434 780.67 429.831 781.922 428.643C783.162 427.466 784.018 425.428 784.467 422.584C784.885 419.926 784.726 418.07 783.993 417.069C783.244 416.046 781.625 415.527 779.18 415.527H774.941L772.591 430.435H776.037L776.037 430.434ZM762.173 448.798C761.977 448.798 761.79 448.69 761.665 448.502C761.603 448.41 761.558 448.302 761.534 448.185C761.51 448.069 761.507 447.948 761.526 447.83L767.754 408.324C767.783 408.139 767.863 407.972 767.982 407.852C768.1 407.732 768.248 407.666 768.401 407.666H781.823C786.042 407.666 789.182 409.076 791.155 411.864C793.139 414.664 793.752 418.578 792.976 423.498C792.66 425.502 792.117 427.363 791.362 429.03C790.606 430.698 789.607 432.242 788.392 433.619C786.938 435.297 785.291 436.514 783.504 437.23C781.744 437.937 779.485 438.296 776.788 438.296H771.352L769.801 448.141C769.772 448.326 769.691 448.493 769.573 448.613C769.455 448.733 769.306 448.799 769.153 448.799H762.173L762.173 448.798Z"
                fill="black" />
            <path
                d="M775.485 416.339H779.18C782.131 416.339 783.156 417.138 783.504 417.613C784.082 418.403 784.191 420.068 783.82 422.429C783.402 425.072 782.629 426.946 781.52 427.998C780.386 429.075 778.541 429.621 776.037 429.621H773.392L775.485 416.339ZM781.823 406.852H768.401C768.095 406.852 767.798 406.984 767.562 407.224C767.326 407.464 767.165 407.798 767.106 408.168L760.879 447.675C760.842 447.91 760.847 448.153 760.895 448.385C760.943 448.618 761.032 448.834 761.156 449.019C761.28 449.205 761.435 449.354 761.611 449.456C761.787 449.558 761.979 449.611 762.173 449.611H769.154C769.46 449.611 769.756 449.48 769.993 449.24C770.229 449 770.39 448.666 770.448 448.295L771.897 439.108H776.788C779.554 439.108 781.883 438.736 783.709 438.003C785.586 437.251 787.314 435.975 788.843 434.212C790.108 432.778 791.149 431.168 791.938 429.427C792.728 427.685 793.295 425.742 793.624 423.653C794.441 418.474 793.777 414.328 791.652 411.329C789.548 408.359 786.241 406.853 781.824 406.853M771.792 431.247H776.037C778.852 431.247 780.948 430.594 782.325 429.287C783.702 427.979 784.632 425.797 785.114 422.739C785.577 419.803 785.366 417.731 784.483 416.524C783.601 415.316 781.832 414.713 779.181 414.713H774.398L771.792 431.247M781.824 408.479C785.862 408.479 788.808 409.785 790.659 412.398C792.511 415.011 793.068 418.659 792.329 423.342C792.025 425.271 791.511 427.035 790.787 428.633C790.063 430.231 789.116 431.694 787.946 433.02C786.552 434.628 785.004 435.774 783.3 436.457C781.596 437.141 779.427 437.482 776.788 437.482H770.81L769.154 447.985H762.174L768.402 408.479H781.824"
                fill="white" />
        </g>
        <path
            d="M438 425.01C438 418.731 429.704 412.781 416.985 409.091C419.92 396.803 418.616 387.028 412.868 383.898C411.543 383.164 409.993 382.816 408.302 382.816V387.124C409.239 387.124 409.993 387.298 410.625 387.627C413.397 389.134 414.6 394.871 413.662 402.251C413.438 404.067 413.071 405.98 412.623 407.931C408.628 407.004 404.266 406.289 399.68 405.826C396.928 402.251 394.074 399.006 391.2 396.166C397.845 390.312 404.082 387.105 408.322 387.105V382.797C402.717 382.797 395.379 386.583 387.959 393.152C380.54 386.622 373.202 382.874 367.596 382.874V387.182C371.816 387.182 378.073 390.37 384.718 396.185C381.865 399.025 379.011 402.251 376.3 405.826C371.693 406.289 367.331 407.004 363.336 407.951C362.868 406.019 362.521 404.145 362.276 402.348C361.318 394.968 362.501 389.23 365.252 387.704C365.864 387.356 366.659 387.202 367.596 387.202V382.893C365.884 382.893 364.335 383.241 362.99 383.975C357.262 387.105 355.978 396.861 358.934 409.11C346.255 412.819 338 418.75 338 425.01C338 431.288 346.296 437.239 359.015 440.929C356.08 453.216 357.384 462.992 363.132 466.121C364.457 466.855 366.007 467.203 367.719 467.203C373.324 467.203 380.662 463.417 388.082 456.848C395.501 463.378 402.839 467.126 408.444 467.126C410.157 467.126 411.706 466.778 413.051 466.044C418.779 462.914 420.063 453.158 417.107 440.91C429.745 437.22 438 431.269 438 425.01ZM411.461 412.124C410.707 414.616 409.769 417.185 408.709 419.755C407.874 418.209 406.997 416.664 406.039 415.118C405.102 413.573 404.103 412.066 403.104 410.597C405.998 411.003 408.791 411.505 411.461 412.124ZM402.126 432.699C400.536 435.307 398.905 437.78 397.213 440.079C394.176 440.33 391.098 440.465 388 440.465C384.922 440.465 381.844 440.33 378.828 440.098C377.136 437.799 375.485 435.346 373.895 432.757C372.346 430.226 370.939 427.656 369.655 425.068C370.919 422.479 372.346 419.89 373.874 417.359C375.464 414.751 377.095 412.278 378.787 409.979C381.824 409.728 384.902 409.593 388 409.593C391.078 409.593 394.156 409.728 397.172 409.96C398.864 412.259 400.515 414.712 402.105 417.301C403.654 419.832 405.061 422.402 406.345 424.99C405.061 427.579 403.654 430.168 402.126 432.699ZM408.709 430.187C409.81 432.776 410.748 435.365 411.522 437.876C408.852 438.495 406.039 439.016 403.124 439.422C404.123 437.934 405.122 436.408 406.06 434.843C406.997 433.298 407.874 431.733 408.709 430.187ZM388.041 450.801C386.145 448.946 384.249 446.879 382.374 444.619C384.209 444.696 386.084 444.754 387.98 444.754C389.896 444.754 391.791 444.715 393.646 444.619C391.812 446.879 389.916 448.946 388.041 450.801ZM372.876 439.422C369.981 439.016 367.189 438.514 364.519 437.896C365.273 435.404 366.21 432.834 367.27 430.265C368.106 431.81 368.982 433.356 369.94 434.901C370.898 436.447 371.877 437.954 372.876 439.422ZM387.939 399.218C389.834 401.073 391.73 403.14 393.605 405.401C391.771 405.323 389.896 405.265 388 405.265C386.084 405.265 384.188 405.304 382.333 405.401C384.168 403.14 386.064 401.073 387.939 399.218ZM372.855 410.597C371.857 412.085 370.858 413.611 369.92 415.176C368.982 416.722 368.106 418.267 367.27 419.813C366.17 417.224 365.232 414.635 364.457 412.124C367.128 411.525 369.94 411.003 372.855 410.597ZM354.408 434.785C347.193 431.868 342.525 428.043 342.525 425.01C342.525 421.977 347.193 418.132 354.408 415.234C356.161 414.519 358.077 413.882 360.055 413.283C361.216 417.069 362.745 421.011 364.641 425.048C362.766 429.067 361.257 432.989 360.116 436.756C358.098 436.157 356.182 435.5 354.408 434.785ZM365.375 462.393C362.603 460.886 361.4 455.148 362.338 447.768C362.562 445.952 362.929 444.039 363.377 442.088C367.372 443.015 371.734 443.73 376.32 444.194C379.072 447.768 381.926 451.014 384.8 453.853C378.155 459.707 371.918 462.914 367.678 462.914C366.761 462.895 365.986 462.721 365.375 462.393ZM413.724 447.671C414.682 455.051 413.499 460.789 410.748 462.315C410.136 462.663 409.341 462.818 408.404 462.818C404.184 462.818 397.927 459.63 391.282 453.815C394.135 450.975 396.989 447.749 399.7 444.174C404.307 443.711 408.669 442.996 412.664 442.049C413.132 444.001 413.499 445.875 413.724 447.671ZM421.571 434.785C419.818 435.5 417.902 436.138 415.925 436.737C414.763 432.95 413.234 429.009 411.339 424.971C413.214 420.953 414.722 417.031 415.864 413.264C417.882 413.862 419.798 414.519 421.592 415.234C428.807 418.151 433.475 421.977 433.475 425.01C433.455 428.043 428.787 431.887 421.571 434.785Z"
            fill="#61DAFB" />
        <path
            d="M387.98 433.84C393.124 433.84 397.295 429.887 397.295 425.011C397.295 420.134 393.124 416.182 387.98 416.182C382.835 416.182 378.665 420.134 378.665 425.011C378.665 429.887 382.835 433.84 387.98 433.84Z"
            fill="#61DAFB" />
        <g clip-path="url(#clip6_366_180)">
            <path
                d="M248.948 375.215C247.542 378.574 245.757 381.764 243.608 384.693C234.205 375.294 221.441 370.008 208.143 370.008C180.636 370.008 158 392.661 158 420.196C158 433.931 163.626 447.08 173.577 456.558L175.426 458.199C184.465 465.815 195.914 470.007 207.726 470.007C233.879 470.007 255.864 449.515 257.726 423.399C259.094 410.614 255.343 394.445 248.948 375.215ZM180.701 456.845C179.894 457.847 178.656 458.433 177.367 458.433C175.01 458.433 173.082 456.493 173.082 454.137C173.082 451.78 175.023 449.84 177.367 449.84C178.344 449.84 179.308 450.179 180.063 450.804C181.899 452.288 182.186 455.009 180.701 456.845ZM248.74 441.821C236.367 458.316 209.941 452.757 192.996 453.551C192.996 453.551 189.987 453.733 186.966 454.228C186.966 454.228 188.099 453.746 189.571 453.186C201.462 449.046 207.088 448.239 214.317 444.529C227.927 437.603 241.381 422.448 244.181 406.682C238.998 421.85 223.29 434.882 208.977 440.18C199.17 443.8 181.457 447.315 181.457 447.315L180.74 446.937C168.68 441.066 168.315 414.936 190.235 406.5C199.834 402.803 209.016 404.834 219.383 402.36C230.454 399.73 243.257 391.424 248.466 380.592C254.301 397.921 261.321 425.052 248.74 441.821Z"
                fill="#77BC1F" />
        </g>
        <g clip-path="url(#clip7_366_180)">
            <path d="M243 593.544V539.01L280.5 566.277V584.455L255.5 566.277V602.633L243 593.544Z"
                fill="#00B0FF" />
            <path
                d="M280.5 566.277L318 539.01V593.544L293 611.722L280.5 602.633L305.5 584.455V566.277L280.5 584.455V566.277Z"
                fill="#0081CB" />
            <path d="M280.5 602.633V620.811L305.5 638.989V620.811L280.5 602.633Z" fill="#00B0FF" />
            <path
                d="M305.5 638.989L343 611.722V575.366L330.5 584.455V602.633L305.5 620.811V638.989ZM330.5 566.277V548.099L343 539.01V557.188L330.5 566.277Z"
                fill="#0081CB" />
        </g>
        <g filter="url(#filter11_d_366_180)">
            <path
                d="M923.114 333.621C929.244 330.136 936.756 330.136 942.886 333.621L1008.62 370.999C1014.87 374.554 1018.74 381.193 1018.74 388.385V462.615C1018.74 469.807 1014.87 476.446 1008.62 480.001L942.886 517.379C936.756 520.864 929.244 520.864 923.114 517.379L857.378 480.001C851.125 476.446 847.263 469.807 847.263 462.615V388.385C847.263 381.193 851.125 374.554 857.378 370.999L923.114 333.621Z"
                fill="#222222" class="hover-path" />
        </g>
        <g filter="url(#filter12_d_366_180)">
            <path
                d="M928.114 25.621C934.244 22.1357 941.756 22.1357 947.886 25.621L1013.62 62.999C1019.87 66.5541 1023.74 73.1926 1023.74 80.385V154.615C1023.74 161.807 1019.87 168.446 1013.62 172.001L947.886 209.379C941.756 212.864 934.244 212.864 928.114 209.379L862.378 172.001C856.125 168.446 852.263 161.807 852.263 154.615V80.385C852.263 73.1926 856.125 66.5541 862.378 62.999L928.114 25.621Z"
                fill="#222222" class="hover-path" />
        </g>
        <g filter="url(#filter13_d_366_180)">
            <path
                d="M829.114 487.621C835.244 484.136 842.756 484.136 848.886 487.621L914.622 524.999C920.875 528.554 924.737 535.193 924.737 542.385V616.615C924.737 623.807 920.875 630.446 914.622 634.001L848.886 671.379C842.756 674.864 835.244 674.864 829.114 671.379L763.378 634.001C757.125 630.446 753.263 623.807 753.263 616.615V542.385C753.263 535.193 757.125 528.554 763.378 524.999L829.114 487.621Z"
                fill="#222222" class="hover-path" />
        </g>
        <path
            d="M872.41 544.125H806.591C804.711 544.125 803.188 545.63 803.188 547.487V612.513C803.188 614.37 804.711 615.875 806.591 615.875H872.41C874.289 615.875 875.812 614.37 875.812 612.513V547.487C875.812 545.63 874.289 544.125 872.41 544.125Z"
            fill="#3178C6" />
        <path fill-rule="evenodd" clip-rule="evenodd"
            d="M845.323 599.882V607.744C846.769 608.449 848.31 608.945 849.898 609.217C851.734 609.552 853.598 609.717 855.465 609.709C857.284 609.718 859.099 609.537 860.88 609.169C862.479 608.85 864.005 608.241 865.38 607.375C866.657 606.561 867.71 605.446 868.444 604.131C869.758 601.408 869.931 598.282 868.926 595.434C868.502 594.368 867.87 593.396 867.066 592.571C866.204 591.695 865.224 590.939 864.154 590.324C862.922 589.611 861.642 588.983 860.323 588.443C859.285 588.018 858.351 587.604 857.521 587.203C856.784 586.854 856.079 586.444 855.413 585.976C854.891 585.614 854.438 585.165 854.074 584.648C853.76 584.179 853.597 583.627 853.605 583.065C853.598 582.547 853.744 582.038 854.025 581.601C854.33 581.144 854.738 580.762 855.216 580.484C855.8 580.144 856.436 579.899 857.099 579.759C857.913 579.58 858.745 579.494 859.578 579.503C860.279 579.505 860.98 579.555 861.674 579.651C862.424 579.751 863.166 579.903 863.894 580.105C864.635 580.308 865.36 580.565 866.063 580.874C866.744 581.174 867.396 581.536 868.011 581.955V574.619C866.732 574.141 865.406 573.797 864.055 573.594C862.423 573.359 860.776 573.248 859.127 573.263C857.325 573.253 855.527 573.456 853.773 573.865C852.188 574.223 850.68 574.859 849.323 575.743C848.061 576.574 847.02 577.691 846.285 579C845.507 580.455 845.122 582.084 845.167 583.728C845.11 585.903 845.835 588.028 847.214 589.724C848.905 591.606 851.039 593.048 853.426 593.924C854.515 594.369 855.531 594.803 856.474 595.229C857.324 595.603 858.141 596.046 858.917 596.554C859.543 596.956 860.092 597.463 860.541 598.053C860.935 598.587 861.144 599.233 861.137 599.895C861.141 600.391 861.012 600.879 860.764 601.31C860.488 601.773 860.1 602.161 859.635 602.44C859.054 602.79 858.417 603.043 857.752 603.188C856.886 603.379 856 603.47 855.112 603.457C853.37 603.454 851.641 603.15 850.005 602.56C848.295 601.951 846.709 601.044 845.323 599.882ZM831.955 580.31H842.33V573.834H813.402V580.31H823.73V609.148H831.955V580.31Z"
            fill="white" />
        <g filter="url(#filter14_d_366_180)">
            <path
                d="M101.114 484.621C107.244 481.136 114.756 481.136 120.886 484.621L186.622 521.999C192.875 525.554 196.737 532.193 196.737 539.385V613.615C196.737 620.807 192.875 627.446 186.622 631.001L120.886 668.379C114.756 671.864 107.244 671.864 101.114 668.379L35.3778 631.001C29.1254 627.446 25.2635 620.807 25.2635 613.615V539.385C25.2635 532.193 29.1254 525.554 35.3778 521.999L101.114 484.621Z"
                fill="#222222" class="hover-path" />
        </g>
        <g clip-path="url(#clip8_366_180)">
            <path
                d="M94.3334 634.999C103.533 634.999 111 626.861 111 616.833V598.666H94.3334C85.1334 598.666 77.6667 606.805 77.6667 616.833C77.6667 626.861 85.1334 634.999 94.3334 634.999Z"
                fill="#0ACF83" />
            <path
                d="M77.6667 580.501C77.6667 570.473 85.1334 562.334 94.3334 562.334H111V598.667H94.3334C85.1334 598.667 77.6667 590.529 77.6667 580.501Z"
                fill="#A259FF" />
            <path
                d="M77.6667 544.167C77.6667 534.139 85.1334 526 94.3334 526H111V562.333H94.3334C85.1334 562.333 77.6667 554.195 77.6667 544.167Z"
                fill="#F24E1E" />
            <path
                d="M111 526H127.667C136.867 526 144.333 534.139 144.333 544.167C144.333 554.195 136.867 562.333 127.667 562.333H111V526Z"
                fill="#FF7262" />
            <path
                d="M144.333 580.501C144.333 590.529 136.867 598.667 127.667 598.667C118.467 598.667 111 590.529 111 580.501C111 570.473 118.467 562.334 127.667 562.334C136.867 562.334 144.333 570.473 144.333 580.501Z"
                fill="#1ABCFE" />
        </g>
        <path
            d="M929 466.75C953.162 466.75 972.75 447.162 972.75 423C972.75 398.838 953.162 379.25 929 379.25C904.838 379.25 885.25 398.838 885.25 423C885.25 447.162 904.838 466.75 929 466.75Z"
            fill="#0769AD" />
        <path
            d="M959.957 425.058C955.722 428.379 950.24 430.383 944.252 430.383C930.836 430.383 919.96 420.327 919.96 407.921C919.96 403.109 921.596 398.651 924.382 394.996C919.129 399.116 915.795 405.264 915.795 412.133C915.795 424.538 926.671 434.595 940.087 434.595C948.3 434.595 955.561 430.827 959.957 425.058Z"
            fill="#78CFF5" />
        <path
            d="M960.25 437.906C954.215 443.665 945.855 447.23 936.617 447.23C918.218 447.23 903.302 433.088 903.302 415.643C903.302 410.114 904.8 404.918 907.432 400.398C901.448 406.109 897.75 413.976 897.75 422.662C897.75 440.107 912.665 454.249 931.065 454.249C943.633 454.249 954.577 447.65 960.25 437.906Z"
            fill="#78CFF5" />
    </g>
    <defs>
        <filter id="filter0_d_366_180" x="711.263" y="139.008" width="247.473" height="264.984"
            filterUnits="userSpaceOnUse" color-interpolation-filters="sRGB">
            <feFlood flood-opacity="0" result="BackgroundImageFix" />
            <feColorMatrix in="SourceAlpha" type="matrix"
                values="0 0 0 0 0 0 0 0 0 0 0 0 0 0 0 0 0 0 127 0" result="hardAlpha" />
            <feOffset dx="-4" dy="-1" />
            <feGaussianBlur stdDeviation="19" />
            <feComposite in2="hardAlpha" operator="out" />
            <feColorMatrix type="matrix" values="0 0 0 0 1 0 0 0 0 1 0 0 0 0 1 0 0 0 0.14 0" />
            <feBlend mode="normal" in2="BackgroundImageFix" result="effect1_dropShadow_366_180" />
            <feBlend mode="normal" in="SourceGraphic" in2="effect1_dropShadow_366_180"
                result="shape" />
        </filter>
        <filter id="filter1_d_366_180" x="165.263" y="443.008" width="247.473" height="264.984"
            filterUnits="userSpaceOnUse" color-interpolation-filters="sRGB">
            <feFlood flood-opacity="0" result="BackgroundImageFix" />
            <feColorMatrix in="SourceAlpha" type="matrix"
                values="0 0 0 0 0 0 0 0 0 0 0 0 0 0 0 0 0 0 127 0" result="hardAlpha" />
            <feOffset dx="-4" dy="-1" />
            <feGaussianBlur stdDeviation="19" />
            <feComposite in2="hardAlpha" operator="out" />
            <feColorMatrix type="matrix" values="0 0 0 0 1 0 0 0 0 1 0 0 0 0 1 0 0 0 0.14 0" />
            <feBlend mode="normal" in2="BackgroundImageFix" result="effect1_dropShadow_366_180" />
            <feBlend mode="normal" in="SourceGraphic" in2="effect1_dropShadow_366_180"
                result="shape" />
        </filter>
        <filter id="filter2_d_366_180" x="347.263" y="446.008" width="247.473" height="264.984"
            filterUnits="userSpaceOnUse" color-interpolation-filters="sRGB">
            <feFlood flood-opacity="0" result="BackgroundImageFix" />
            <feColorMatrix in="SourceAlpha" type="matrix"
                values="0 0 0 0 0 0 0 0 0 0 0 0 0 0 0 0 0 0 127 0" result="hardAlpha" />
            <feOffset dx="-4" dy="-1" />
            <feGaussianBlur stdDeviation="19" />
            <feComposite in2="hardAlpha" operator="out" />
            <feColorMatrix type="matrix" values="0 0 0 0 1 0 0 0 0 1 0 0 0 0 1 0 0 0 0.14 0" />
            <feBlend mode="normal" in2="BackgroundImageFix" result="effect1_dropShadow_366_180" />
            <feBlend mode="normal" in="SourceGraphic" in2="effect1_dropShadow_366_180"
                result="shape" />
        </filter>
        <filter id="filter3_d_366_180" x="260.263" y="292.008" width="247.473" height="264.984"
            filterUnits="userSpaceOnUse" color-interpolation-filters="sRGB">
            <feFlood flood-opacity="0" result="BackgroundImageFix" />
            <feColorMatrix in="SourceAlpha" type="matrix"
                values="0 0 0 0 0 0 0 0 0 0 0 0 0 0 0 0 0 0 127 0" result="hardAlpha" />
            <feOffset dx="-4" dy="-1" />
            <feGaussianBlur stdDeviation="19" />
            <feComposite in2="hardAlpha" operator="out" />
            <feColorMatrix type="matrix" values="0 0 0 0 1 0 0 0 0 1 0 0 0 0 1 0 0 0 0.14 0" />
            <feBlend mode="normal" in2="BackgroundImageFix" result="effect1_dropShadow_366_180" />
            <feBlend mode="normal" in="SourceGraphic" in2="effect1_dropShadow_366_180"
                result="shape" />
        </filter>
        <filter id="filter4_d_366_180" x="80.2634" y="287.008" width="247.473" height="264.984"
            filterUnits="userSpaceOnUse" color-interpolation-filters="sRGB">
            <feFlood flood-opacity="0" result="BackgroundImageFix" />
            <feColorMatrix in="SourceAlpha" type="matrix"
                values="0 0 0 0 0 0 0 0 0 0 0 0 0 0 0 0 0 0 127 0" result="hardAlpha" />
            <feOffset dx="-4" dy="-1" />
            <feGaussianBlur stdDeviation="19" />
            <feComposite in2="hardAlpha" operator="out" />
            <feColorMatrix type="matrix" values="0 0 0 0 1 0 0 0 0 1 0 0 0 0 1 0 0 0 0.14 0" />
            <feBlend mode="normal" in2="BackgroundImageFix" result="effect1_dropShadow_366_180" />
            <feBlend mode="normal" in="SourceGraphic" in2="effect1_dropShadow_366_180"
                result="shape" />
        </filter>
        <filter id="filter5_d_366_180" x="351.263" y="139.008" width="247.473" height="264.984"
            filterUnits="userSpaceOnUse" color-interpolation-filters="sRGB">
            <feFlood flood-opacity="0" result="BackgroundImageFix" />
            <feColorMatrix in="SourceAlpha" type="matrix"
                values="0 0 0 0 0 0 0 0 0 0 0 0 0 0 0 0 0 0 127 0" result="hardAlpha" />
            <feOffset dx="-4" dy="-1" />
            <feGaussianBlur stdDeviation="19" />
            <feComposite in2="hardAlpha" operator="out" />
            <feColorMatrix type="matrix" values="0 0 0 0 1 0 0 0 0 1 0 0 0 0 1 0 0 0 0.14 0" />
            <feBlend mode="normal" in2="BackgroundImageFix" result="effect1_dropShadow_366_180" />
            <feBlend mode="normal" in="SourceGraphic" in2="effect1_dropShadow_366_180"
                result="shape" />
        </filter>
        <filter id="filter6_d_366_180" x="440.263" y="292.008" width="247.473" height="264.984"
            filterUnits="userSpaceOnUse" color-interpolation-filters="sRGB">
            <feFlood flood-opacity="0" result="BackgroundImageFix" />
            <feColorMatrix in="SourceAlpha" type="matrix"
                values="0 0 0 0 0 0 0 0 0 0 0 0 0 0 0 0 0 0 127 0" result="hardAlpha" />
            <feOffset dx="-4" dy="-1" />
            <feGaussianBlur stdDeviation="19" />
            <feComposite in2="hardAlpha" operator="out" />
            <feColorMatrix type="matrix" values="0 0 0 0 1 0 0 0 0 1 0 0 0 0 1 0 0 0 0.14 0" />
            <feBlend mode="normal" in2="BackgroundImageFix" result="effect1_dropShadow_366_180" />
            <feBlend mode="normal" in="SourceGraphic" in2="effect1_dropShadow_366_180"
                result="shape" />
        </filter>
        <filter id="filter7_d_366_180" x="531.263" y="139.008" width="247.473" height="264.984"
            filterUnits="userSpaceOnUse" color-interpolation-filters="sRGB">
            <feFlood flood-opacity="0" result="BackgroundImageFix" />
            <feColorMatrix in="SourceAlpha" type="matrix"
                values="0 0 0 0 0 0 0 0 0 0 0 0 0 0 0 0 0 0 127 0" result="hardAlpha" />
            <feOffset dx="-4" dy="-1" />
            <feGaussianBlur stdDeviation="19" />
            <feComposite in2="hardAlpha" operator="out" />
            <feColorMatrix type="matrix" values="0 0 0 0 1 0 0 0 0 1 0 0 0 0 1 0 0 0 0.14 0" />
            <feBlend mode="normal" in2="BackgroundImageFix" result="effect1_dropShadow_366_180" />
            <feBlend mode="normal" in="SourceGraphic" in2="effect1_dropShadow_366_180"
                result="shape" />
        </filter>
        <filter id="filter8_d_366_180" x="622.263" y="-15.9922" width="247.473" height="264.984"
            filterUnits="userSpaceOnUse" color-interpolation-filters="sRGB">
            <feFlood flood-opacity="0" result="BackgroundImageFix" />
            <feColorMatrix in="SourceAlpha" type="matrix"
                values="0 0 0 0 0 0 0 0 0 0 0 0 0 0 0 0 0 0 127 0" result="hardAlpha" />
            <feOffset dx="-4" dy="-1" />
            <feGaussianBlur stdDeviation="19" />
            <feComposite in2="hardAlpha" operator="out" />
            <feColorMatrix type="matrix" values="0 0 0 0 1 0 0 0 0 1 0 0 0 0 1 0 0 0 0.14 0" />
            <feBlend mode="normal" in2="BackgroundImageFix" result="effect1_dropShadow_366_180" />
            <feBlend mode="normal" in="SourceGraphic" in2="effect1_dropShadow_366_180"
                result="shape" />
        </filter>
        <filter id="filter9_d_366_180" x="531.263" y="446.008" width="247.473" height="264.984"
            filterUnits="userSpaceOnUse" color-interpolation-filters="sRGB">
            <feFlood flood-opacity="0" result="BackgroundImageFix" />
            <feColorMatrix in="SourceAlpha" type="matrix"
                values="0 0 0 0 0 0 0 0 0 0 0 0 0 0 0 0 0 0 127 0" result="hardAlpha" />
            <feOffset dx="-4" dy="-1" />
            <feGaussianBlur stdDeviation="19" />
            <feComposite in2="hardAlpha" operator="out" />
            <feColorMatrix type="matrix" values="0 0 0 0 1 0 0 0 0 1 0 0 0 0 1 0 0 0 0.14 0" />
            <feBlend mode="normal" in2="BackgroundImageFix" result="effect1_dropShadow_366_180" />
            <feBlend mode="normal" in="SourceGraphic" in2="effect1_dropShadow_366_180"
                result="shape" />
        </filter>
        <filter id="filter10_d_366_180" x="621.263" y="292.008" width="247.473" height="264.984"
            filterUnits="userSpaceOnUse" color-interpolation-filters="sRGB">
            <feFlood flood-opacity="0" result="BackgroundImageFix" />
            <feColorMatrix in="SourceAlpha" type="matrix"
                values="0 0 0 0 0 0 0 0 0 0 0 0 0 0 0 0 0 0 127 0" result="hardAlpha" />
            <feOffset dx="-4" dy="-1" />
            <feGaussianBlur stdDeviation="19" />
            <feComposite in2="hardAlpha" operator="out" />
            <feColorMatrix type="matrix" values="0 0 0 0 1 0 0 0 0 1 0 0 0 0 1 0 0 0 0.14 0" />
            <feBlend mode="normal" in2="BackgroundImageFix" result="effect1_dropShadow_366_180" />
            <feBlend mode="normal" in="SourceGraphic" in2="effect1_dropShadow_366_180"
                result="shape" />
        </filter>
        <filter id="filter11_d_366_180" x="805.263" y="292.008" width="247.473" height="264.984"
            filterUnits="userSpaceOnUse" color-interpolation-filters="sRGB">
            <feFlood flood-opacity="0" result="BackgroundImageFix" />
            <feColorMatrix in="SourceAlpha" type="matrix"
                values="0 0 0 0 0 0 0 0 0 0 0 0 0 0 0 0 0 0 127 0" result="hardAlpha" />
            <feOffset dx="-4" dy="-1" />
            <feGaussianBlur stdDeviation="19" />
            <feComposite in2="hardAlpha" operator="out" />
            <feColorMatrix type="matrix" values="0 0 0 0 1 0 0 0 0 1 0 0 0 0 1 0 0 0 0.14 0" />
            <feBlend mode="normal" in2="BackgroundImageFix" result="effect1_dropShadow_366_180" />
            <feBlend mode="normal" in="SourceGraphic" in2="effect1_dropShadow_366_180"
                result="shape" />
        </filter>
        <filter id="filter12_d_366_180" x="810.263" y="-15.9922" width="247.473" height="264.984"
            filterUnits="userSpaceOnUse" color-interpolation-filters="sRGB">
            <feFlood flood-opacity="0" result="BackgroundImageFix" />
            <feColorMatrix in="SourceAlpha" type="matrix"
                values="0 0 0 0 0 0 0 0 0 0 0 0 0 0 0 0 0 0 127 0" result="hardAlpha" />
            <feOffset dx="-4" dy="-1" />
            <feGaussianBlur stdDeviation="19" />
            <feComposite in2="hardAlpha" operator="out" />
            <feColorMatrix type="matrix" values="0 0 0 0 1 0 0 0 0 1 0 0 0 0 1 0 0 0 0.14 0" />
            <feBlend mode="normal" in2="BackgroundImageFix" result="effect1_dropShadow_366_180" />
            <feBlend mode="normal" in="SourceGraphic" in2="effect1_dropShadow_366_180"
                result="shape" />
        </filter>
        <filter id="filter13_d_366_180" x="711.263" y="446.008" width="247.473" height="264.984"
            filterUnits="userSpaceOnUse" color-interpolation-filters="sRGB">
            <feFlood flood-opacity="0" result="BackgroundImageFix" />
            <feColorMatrix in="SourceAlpha" type="matrix"
                values="0 0 0 0 0 0 0 0 0 0 0 0 0 0 0 0 0 0 127 0" result="hardAlpha" />
            <feOffset dx="-4" dy="-1" />
            <feGaussianBlur stdDeviation="19" />
            <feComposite in2="hardAlpha" operator="out" />
            <feColorMatrix type="matrix" values="0 0 0 0 1 0 0 0 0 1 0 0 0 0 1 0 0 0 0.14 0" />
            <feBlend mode="normal" in2="BackgroundImageFix" result="effect1_dropShadow_366_180" />
            <feBlend mode="normal" in="SourceGraphic" in2="effect1_dropShadow_366_180"
                result="shape" />
        </filter>
        <filter id="filter14_d_366_180" x="-16.7366" y="443.008" width="247.473" height="264.984"
            filterUnits="userSpaceOnUse" color-interpolation-filters="sRGB">
            <feFlood flood-opacity="0" result="BackgroundImageFix" />
            <feColorMatrix in="SourceAlpha" type="matrix"
                values="0 0 0 0 0 0 0 0 0 0 0 0 0 0 0 0 0 0 127 0" result="hardAlpha" />
            <feOffset dx="-4" dy="-1" />
            <feGaussianBlur stdDeviation="19" />
            <feComposite in2="hardAlpha" operator="out" />
            <feColorMatrix type="matrix" values="0 0 0 0 1 0 0 0 0 1 0 0 0 0 1 0 0 0 0.14 0" />
            <feBlend mode="normal" in2="BackgroundImageFix" result="effect1_dropShadow_366_180" />
            <feBlend mode="normal" in="SourceGraphic" in2="effect1_dropShadow_366_180"
                result="shape" />
        </filter>
        <radialGradient id="paint0_radial_366_180" cx="0" cy="0" r="1"
            gradientUnits="userSpaceOnUse"
            gradientTransform="translate(725.027 400.348) scale(79.8161 98.4081)">
            <stop stop-color="#AEB2D5" />
            <stop offset="0.3" stop-color="#AEB2D5" />
            <stop offset="0.75" stop-color="#484C89" />
            <stop offset="1" stop-color="#484C89" />
        </radialGradient>
        <clipPath id="clip0_366_180">
            <rect width="929" height="677" fill="white" />
        </clipPath>
        <clipPath id="clip1_366_180">
            <rect width="100" height="100" fill="white" transform="translate(789 228)" />
        </clipPath>
        <clipPath id="clip2_366_180">
            <rect width="120" height="100" fill="white" transform="translate(415 529)" />
        </clipPath>
        <clipPath id="clip3_366_180">
            <rect width="100" height="100" fill="white" transform="translate(518 382)" />
        </clipPath>
        <clipPath id="clip4_366_180">
            <rect width="100" height="100" fill="white" transform="translate(429 228)" />
        </clipPath>
        <clipPath id="clip5_366_180">
            <rect width="76" height="121" fill="white" transform="translate(621 207)" />
        </clipPath>
        <clipPath id="clip6_366_180">
            <rect width="100" height="100" fill="white" transform="translate(158 370)" />
        </clipPath>
        <clipPath id="clip7_366_180">
            <rect width="100" height="100" fill="white" transform="translate(243 539)" />
        </clipPath>
        <clipPath id="clip8_366_180">
            <rect width="100" height="109" fill="white" transform="translate(61 526)" />
        </clipPath>
        <linearGradient id="violet-blue-gradient" x1="0%" y1="0%" x2="100%" y2="100%">
            <stop offset="0%" style="stop-color:violet;stop-opacity:1" />
            <stop offset="100%" style="stop-color:blue;stop-opacity:1" />
        </linearGradient>
    </defs>
</svg>